ply
format ascii 1.0
element vertex 550
property float x
property float y
property float z
end_header
160.4941590905875 1778.7741916549737 0
150.16220464573206 1779.6761818645361 0
139.82518659256266 1780.5181597485478 0
128.17846909105813 1763.3474643590448 0
117.93664169998691 1764.0620591533986 0
107.32537073368576 1758.7283089769371 0
97.00049029864617 1757.324928657709 0
86.69553140309732 1755.8610095433905 0
76.49787688399459 1756.334841319343 0
66.22221884632725 1754.7508705599976 0
55.96753900137787 1753.1068520139122 0
45.78639581875153 1753.4022943859543 0
35.6037086765444 1753.6386104122125 0
25.419820944377335 1753.8157921238924 0
15.165588798457142 1745.9341353316843 0
5.026785145149521 1745.9927638541647 0
-4.872096711696012 1663.9928673746267 0
-14.534733874932714 1663.9365196759113 0
-25.418358075009746 1747.8151810396803 0
-35.97435026158302 1767.6339683665442 0
-46.23830146422528 1767.3952640758387 0
-56.82026752669075 1777.0918539001284 0
-65.0997028816692 1722.7704515357575 0
-75.10264292813824 1722.3633742695554 0
-85.99159737447182 1739.8762729518976 0
-95.32123922323512 1725.3689058728705 0
-104.4853197905643 1710.8123269219986 0
-114.15113537516376 1706.1856634881683 0
-125.6529956142584 1727.4360551676473 0
-137.24877445146134 1746.6158060408052 0
-146.71595777362083 1737.8177199391682 0
-157.8838332318795 1748.8878452330807 0
-170.14211676978655 1769.840574769687 0
-180.41661948954183 1768.8227280911917 0
-188.54009982954113 1747.8605867620754 0
-188.74102107001923 1659.3001015384307 0
-198.37330747314087 1658.1761157615817 0
-207.99890454500664 1656.9962147536962 0
-220.2236851590918 1675.5899046290979 0
-229.95003478214159 1674.282826019455 0
-246.47578664042115 1720.4341564267972 0
-259.7084575788786 1740.7330401477418 0
-270.1190292693484 1741.1719358026032 0
-280.54344551811187 1741.5485566520465 0
-290.98133373938185 1741.8627567679523 0
-301.09133333232467 1740.1436748131352 0
-311.5436047394914 1740.3346179243586 0
-321.6443838209257 1738.4961577054053 0
-332.10958182069214 1738.5635523796318 0
-342.5863960267226 1738.5679627950763 0
-353.07444745812904 1738.5092563895473 0
-363.1639265316671 1736.429659521543 0
-373.6619498660658 1736.2467414576447 0
-383.7379435192533 1734.047632189962 0
-394.2444667657642 1733.740263252999 0
-404.76034530556717 1733.3692805827955 0
-415.2851942434804 1732.934565251139 0
-425.8186276190885 1732.4360006570505 0
-436.3602584208046 1731.8734725351412 0
-446.90969859999336 1731.2468689638872 0
-457.46655908515646 1730.5560803738165 0
-469.07516062161073 1733.662162501048 0
-480.201651831377 1734.7640685633355 0
-490.8119807493048 1733.8706986257494 0
-501.9840156308393 1734.8337234591495 0
-512.6166942586252 1733.8074070574733 0
-523.8325432137412 1734.6306427220245 0
-534.4859101886402 1733.4707415499752 0
-545.1434504390552 1732.245542191811 0
-555.8047644661713 1730.9549571830873 0
-567.0919457999645 1731.4995596328665 0
-577.1371114981607 1728.177292563341 0
-588.4518667864199 1728.5833507458 0
-599.1352470975005 1727.0266227494633 0
-610.4868391177051 1727.2897322869933 0
-621.1842361110295 1725.59732985629 0
-632.5708662657067 1725.716691450788 0
-644.679001163611 1727.6356634020638 0
-655.4105084902409 1725.732616995044 0
-667.5834942608277 1727.4942194376524 0
-679.7989672139181 1729.1724506754351 0
-691.3138187231532 1728.909831090798 0
-702.0951725659597 1726.7189605316712 0
-714.4025018999745 1728.1577084511289 0
-725.975351776097 1727.6677309637905 0
-737.5665491645982 1727.101498335702 0
-749.1755979722452 1726.4587812638124 0
-762.4155780060547 1729.3994583131143 0
-774.080060052416 1728.593665564365 0
-784.1048614609116 1724.0694783660445 0
-795.780314467025 1723.1185946146488 0
-807.4711081964522 1722.0901281373149 0
-819.176734608478 1720.9838690342776 0
-830.8966837438678 1719.799610694061 0
-843.5109353277113 1720.3329044061704 0
-856.1593100598722 1720.7775090922719 0
-868.8412022261173 1721.133046953162 0
-880.6443627511255 1719.6190003470724 0
-894.3030998604924 1721.575431277966 0
-908.0141305375994 1723.430978816398 0
-919.8917183175475 1721.6571164348577 0
-932.7319996865541 1721.5617958007554 0
-945.6020972288076 1721.3752274610206 0
-957.528285306864 1719.34975581971 0
-970.4459986810131 1718.9853296767867 0
-982.3983440026822 1716.7927928846823 0
-992.3511060199233 1711.0591113053445 0
-1005.3106590500059 1710.440434157367 0
-1020.3432142139505 1713.1654109301717 0
-1035.441144424549 1715.7731890995324 0
-1049.5603569693658 1716.5568875773647 0
-1061.6169352406023 1713.8335633340685 0
-1076.8664115203944 1716.1103495227771 0
-1090.0322823978156 1714.8918681434038 0
-1102.137424465826 1711.8963454578188 0
-1114.2445274044278 1708.818051504982 0
-1128.557184029269 1708.9946408271521 0
-1142.9093162429585 1709.0624022677032 0
-1159.5429711927056 1712.332940160176 0
-1173.9908980422517 1712.1686164960352 0
-1190.7570084538054 1715.1798001428726 0
-1205.2972621128697 1714.7811842748977 0
-1215.2345846456608 1707.753174285174 0
-1229.807000590784 1707.1586749033902 0
-1242.0564898000741 1703.2203839038325 0
-1256.6772021350314 1702.4154632856428 0
-1273.724508286672 1704.7022839750862 0
-1290.8405074447148 1706.8482019031076 0
-1308.0241361518974 1708.8524978019848 0
-1322.8246496449603 1707.5523260772095 0
-1335.1860093316611 1702.9898180802472 0
-1350.0251383161794 1701.4746915291985 0
-1367.395914932377 1702.9634205778607 0
-1382.3067945816929 1701.2030818374642 0
-1399.78361170276 1702.4164709049242 0
-1417.3208766615917 1703.4839396305495 0
-1432.3413288092925 1701.3448556318117 0
-1449.97843662433 1702.1335239411928 0
-1467.6727414196953 1702.774419614529 0
-1477.5359175280062 1694.2230114169365 0
-1495.2888566089557 1694.6124144774467 0
-1513.0958743226104 1694.8524641124063 0
-1530.9558329820406 1694.9425469490893 0
-1546.169214017686 1691.9293016033298 0
-1564.1145193962248 1691.7333626236484 0
-1582.1094127096633 1691.3857650505056 0
-1602.902139349065 1693.7912302495226 0
-1623.7757821507957 1696.0118541155812 0
-1644.7288932676006 1698.046780171481 0
-1662.960420978023 1697.0381958755663 0
-1678.4192739381615 1693.0341818383038 0
-1696.7200991474292 1691.7319247295472 0
-1717.9110517601835 1693.0816927249025 0
-1739.1745111310197 1694.2420192617637 0
-1763.3903462674236 1697.9865979126146 0
-1781.9129923098296 1695.9911815329199 0
-1791.73148027453 1685.6151110479645 0
-1807.3480519975428 1680.6299470557722 0
-1825.9119671379347 1678.2268881955379 0
-1847.4693089201223 1678.3542988887075 0
-1872.0655593783117 1680.9600058863887 0
-1893.7621434609168 1680.6810952689132 0
-1918.5253055059743 1682.8442150517703 0
-1937.3322238699245 1679.535606754204 0
-1962.2401520104966 1681.2702298672345 0
-1987.2330423744465 1682.7717716004156 0
-2006.173936865989 1678.905040506943 0
-2031.3014240275727 1679.9733702483368 0
-2056.5084489910414 1680.8060563992685 0
-2081.793119851364 1681.402214266273 0
-2110.279877688006 1684.2561675187935 0
-2132.5877938665935 1681.8814766359772 0
-2142.318434975778 1669.4692938664466 0
-2145.6381699283024 1652.1201057267974 0
-2142.461967583287 1629.945004427803 0
-2151.8908498391506 1617.476358522293 0
-2145.1903543175536 1593.0292978294308 0
-2141.504195316834 1571.0810868444696 0
-2341.6829685695993 1697.1107432077229 0
-2351.4985197897695 1683.484098952682 0
-2361.234776306701 1669.8006860580226 0
-2344.6574799591303 1637.7366399002315 0
-2337.665763767654 1612.7364251199235 0
-2353.6026689318724 1603.6391354655723 0
-2525.488839075053 1699.3652119857406 0
-2535.3143828252673 1684.6711786693968 0
-2545.054433431467 1669.9203366840097 0
-2578.2079536947576 1670.337614826742 0
-2614.820963996658 1672.5810372725105 0
-2624.489467268164 1657.3687085855306 0
-2661.2248256936173 1659.0293629444832 0
-2698.067055291195 1660.318693851364 0
-2728.1755463025142 1657.0824326378506 0
-2765.198275508745 1657.665375497559 0
-2809.2041503338187 1661.9470634611823 0
-2839.5341519433027 1657.7061862548583 0
-2880.307151254869 1659.1584356022358 0
-2921.1917166409567 1660.192445058181 0
-2958.695334592428 1658.8507820358645 0
-2996.280934668756 1657.1290114352973 0
-3030.4338531105936 1653.1106018416558 0
-3071.685460786752 1652.5412037196759 0
-3123.6321370536757 1657.1717691191477 0
-3179.279089261725 1663.1080760380958 0
-3224.4336023779897 1662.9527786006731 0
-3234.0359165055916 1644.2006236319937 0
-3268.56192593313 1637.9374030591975 0
-3310.296311944388 1634.8707371310375 0
-3330.524142463824 1620.871659467711 0
-3462.510899356334 1660.3066800560046 0
-3508.2614777355975 1657.257193026007 0
-3517.8259324273554 1636.856960501316 0
-3570.9081144821184 1636.3982516263454 0
-3635.040055993369 1640.3133210834217 0
-3692.0250960618296 1640.289818919095 0
-3752.795677161211 1641.2618942387369 0
-3813.700316194775 1641.5827418244478 0
-3867.3670812592104 1638.1305988206843 0
-3913.7364561745276 1631.032480243864 0
-3974.9568690690267 1629.5195270511372 0
-4051.129239485194 1633.3327539078232 0
-4142.351477214902 1642.211995820126 0
-4218.902902672907 1644.275614919264 0
-4228.37999227865 1619.748943786538 0
-4275.150137436264 1609.2592402651267 0
-4314.436411122604 1595.5057049034638 0
-4331.148039915602 1573.156272064299 0
-4340.210250722519 1547.9789984115316 0
-4666.249884164181 1633.783345042349 0
-4728.619036440356 1624.8575347438582 0
-4737.9747722234015 1597.3712961533408 0
-4762.361685483679 1574.8546525432266 0
-4763.816557632397 1544.7057341860989 0
-4765.082131256862 1514.5931078598499 0
-4758.5208022633915 1482.1389187341958 0
-4759.395513095802 1452.146807290347 0
-4760.082618435439 1422.1945948669656 0
-4760.582611614206 1392.2834474331953 0
-4776.278532728408 1366.8165121177624 0
-4768.727191965098 1334.7452822964642 0
-4745.532333919407 1298.584948213024 0
-4752.993136738549 1271.005996097676 0
-4744.813034434219 1239.3406586823246 0
-4744.17789623193 1209.7901011763884 0
-4735.596548806159 1178.3570456084997 0
-4742.359362022425 1150.8378171741924 0
-4819.028914771249 1139.852761806819 0
-4950.298663757514 1140.5889441865427 0
-5058.317123888324 1134.5853313780115 0
-5346.19922227317 1166.5924205847352 0
-5352.883423885724 1135.527652807032 0
-5406.399289053223 1114.112529022454 0
-5389.243911479622 1077.9916801997285 0
-5395.412887486273 1046.6784480188012 0
-5385.67532569308 1012.3740841313279 0
-5383.592574550828 979.6504433935515 0
-5381.311649835707 946.98517799515 0
-5386.720011696579 915.7202168717308 0
-5384.052223653724 883.1294655764799 0
-5389.089732534295 851.849666721448 0
-5401.854527349736 821.7442822138545 0
-5406.535275534937 790.3621412974999 0
-5458.568413519795 765.620581570266 0
-5462.922298096562 733.9100523629363 0
-6165.35625405882 791.8574748891352 0
-6169.850578129457 756.0422233947055 0
-6325.113168484953 737.8125817971876 0
-6384.9505570173005 707.235734705523 0
-6388.949784619449 670.1467373725691 0
-6376.811444975479 631.4584667495902 0
-6364.439762014604 592.9338206642453 0
-5499.080296934377 480.1207013534482 0
-5501.775615631328 448.1797354237672 0
-5528.217085062935 418.03332453077917 0
-5530.551374359277 385.92420962244415 0
-5524.715475468559 353.29154407969406 0
-5518.68734874415 320.73968699128415 0
-5520.456819665838 288.68755117763027 0
-5514.048760666347 256.25429751308184 0
-5507.450449643136 223.90521370797862 0
-5508.657797316479 191.9199626520248 0
-5509.679387958038 159.9282398775639 0
-5510.515187118833 127.93112417505327 0
-5511.165166614943 95.92969451681206 0
-5503.629842548011 63.83225058662311 0
-5503.907719337092 31.87188449980994 0
-5495.999999272467 -0.08942616730466521 0
-5495.906814879835 -32.00440840537154 0
-5503.62776238729 -64.01135117983422 0
-5503.163258121028 -95.96954968505882 0
-5502.513182103921 -127.92451200837962 0
-5501.677556257134 -159.87516059893335 0
-5492.661268629731 -191.5416093041545 0
-5491.456387743301 -223.43397573621507 0
-5490.066329872515 -255.31880776812113 0
-5496.480211966941 -287.61307247037496 0
-5494.717384743437 -319.52599549684027 0
-5484.785594306378 -350.9173470907845 0
-5490.635935144072 -383.3184416442599 0
-5488.317450398464 -415.1958136249832 0
-5485.813894516367 -447.0591848191607 0
-5483.12535192 -478.907480764476 0
-5488.217395701581 -511.4819816167058 0
-5485.154712778867 -543.343148369222 0
-5481.907065370101 -575.1859930886438 0
-5478.474562988953 -607.0094420048196 0
-5474.8573213825775 -638.8124220016348 0
-5478.996036493635 -671.5671463726009 0
-5475.0039028915835 -703.3720660659864 0
-5470.827147098169 -735.153267403274 0
-5474.388324319715 -768.0211419954445 0
-5477.751991689567 -800.9551282943216 0
-5473.008529837707 -832.7506423436117 0
-5475.982363532736 -865.7673788486351 0
-2281.499686553256 -374.30359370087984 0
-2279.2876580768734 -387.5458317908228 0
-2276.9987699142434 -400.77500147716603 0
-2274.63309924879 -413.9906566600788 0
-2280.0529774996653 -428.67052592277804 0
-2250.0378935734475 -436.5701289410028 0
-2216.086599711946 -443.3510827517465 0
-2213.474718982864 -456.2123063045661 0
-2210.788197840662 -469.0581459568067 0
-2223.659177333085 -485.2997661882251 0
-2212.997587160457 -496.4530987132584 0
-2210.0773978919187 -509.29548920767616 0
-2187.619872517355 -517.5164667594187 0
-2184.5777972552833 -530.2111350577756 0
-2185.343661092868 -543.8539168942533 0
-2306.178449360948 -588.1674588951118 0
-2302.724108540604 -601.5493994227575 0
-2299.1921177352438 -614.9110551487302 0
-2284.008230016374 -625.0843184862913 0
-2280.3398887287126 -638.3368952776594 0
-2276.594652272615 -651.5679467589938 0
-2272.772646940914 -664.7770267670141 0
-2272.7065590503225 -679.1088988149423 0
-2272.550533057773 -693.4623816032359 0
-2268.485317125897 -706.6472712635485 0
-2256.719553228004 -717.3847350469616 0
-2256.3206135112364 -731.7112060398404 0
-2256.7324343120586 -804.9687695333097 0
-2252.0199733341274 -818.0599242745951 0
-2247.2315721614773 -831.1234932792203 0
-2208.675728606709 -831.4755112831778 0
-2181.3985259367746 -835.701185257546 0
-2165.3281773285894 -843.9963770460441 0
-2167.8274269773824 -859.5046520203489 0
-2166.5095546042057 -873.5744672371587 0
-2165.1012529200975 -887.6579096723156 0
-2163.602319515119 -901.7544028108748 0
-2162.0125556297635 -915.8633682483749 0
-2160.3317661700653 -929.9842257138166 0
-2162.224547090517 -945.7193071726983 0
-2164.0071836490324 -961.5076230147022 0
-2162.0331975974227 -975.7030554869982 0
-2159.967196660273 -989.9079297346603 0
-2161.435574697626 -1005.8092544968671 0
-2162.7918679246013 -1021.7608996429717 0
-2164.0355421056447 -1037.762098220748 0
-2161.5694467654744 -1052.0615603708754 0
-2155.423735402422 -1064.5959425358847 0
-2156.3574388001944 -1080.678766392246 0
-1440.494920773816 -732.4140790733326 0
-1436.2175432197366 -740.7666086885017 0
-1415.942445954414 -740.7502883864648 0
-1411.6170744361357 -748.9601025157253 0
-1389.6315349032552 -747.6685075636283 0
-1369.4649150130242 -747.1049769265163 0
-1349.3522324098922 -746.3327360436765 0
-1331.0397112269143 -746.3305481735106 0
-1314.511959895987 -747.1293778793679 0
-1292.8212124422237 -744.7666162358639 0
-1274.6571722779456 -744.194257677652 0
-1256.5438404882136 -743.4363301124923 0
-1236.7674080757104 -741.4650216441024 0
-1218.7661120269656 -740.3277410543751 0
-1200.8201903023894 -739.0066782933246 0
-1184.6283439520298 -738.5605504665624 0
-1166.7915699869047 -736.8835947471581 0
-1150.6994472000754 -736.102426441756 0
-1138.0131106223773 -737.33449671881 0
-1128.695834513014 -740.6387197230313 0
-1126.0416961327542 -748.287443814521 0
-1124.9960169301341 -757.0468690189092 0
-1125.5392401579345 -766.945512317987 0
-1121.066650680391 -773.4685285984496 0
-1121.475007833704 -783.4014340071082 0
-1120.1727379384135 -792.2102228446429 0
-1120.4320420648676 -802.1945145127527 0
-1122.2323813728265 -813.3821255709246 0
-1122.3278125544623 -823.4344425433733 0
-1115.9216063688484 -828.7454183518415 0
-1096.7020903911675 -824.3958545090115 0
-1035.267987600457 -866.4411081254743 0
-1030.2191544313578 -872.438246435092 0
-1025.1355813202874 -878.4059653207715 0
-1002.8368736593745 -879.7012020163959 0
-997.711586624072 -885.5097909769698 0
-992.5526558320283 -891.2885197290422 0
-981.4390543161387 -891.6576600147857 0
-973.2997663191654 -894.6348779714874 0
-965.1590955628536 -897.5477258911051 0
-959.9308099641601 -903.1372210697285 0
-956.1188194894435 -910.0751633893285 0
-1504.021105314673 -1448.3316314877713 0
-1495.5853610007855 -1457.040983624054 0
-868.7505853562866 -876.3723069809483 0
-863.6468897966433 -881.4023200245076 0
-858.5140712657317 -886.4026113672827 0
-845.0539011985051 -882.7048793731612 0
-835.7898690902975 -883.2390926165028 0
-827.9144632317574 -885.1562808745533 0
-821.4027576038608 -888.4804498697613 0
-816.2295489997551 -893.2353124119402 0
-812.3693598790837 -899.4442857284979 0
-1282.1959860965753 -1453.209363181311 0
-1273.7356571245782 -1460.6305062435945 0
-1265.2323766090922 -1468.0023954953574 0
-1245.0144210908684 -1461.6220753928733 0
-720.1868378679205 -875.9491529545568 0
-715.0881043949457 -880.11647124278 0
-709.965257490238 -884.2541111902281 0
-698.6031394785222 -880.528053789743 0
-689.7763396586104 -879.8480557727962 0
-682.2059058237126 -880.6765025020526 0
-675.8647771243975 -883.0349953668815 0
-670.7256438265914 -886.9448183023588 0
-664.3668356786375 -889.222529882343 0
-661.5674320955583 -896.2837345341534 0
-1039.2101090375256 -1442.6802657810963 0
-1030.815018836075 -1448.69058012468 0
-1022.3851685995556 -1454.6520432830864 0
-1010.4992874409592 -1455.6356652958575 0
-997.5056150030438 -1454.8809394714742 0
-983.4335744151668 -1452.3685498911798 0
-583.6558286988983 -872.8378277926561 0
-575.2713075638379 -871.2054423003751 0
-570.2025639126416 -874.5313236856927 0
-565.1145925040331 -877.827715066573 0
-562.1531877631695 -884.4703463020718 0
-559.1336200338395 -891.1080714188678 0
-547.6307585037831 -884.1383106395579 0
-542.4873803968625 -887.3034667520182 0
-551.7921705133587 -914.412051845423 0
-546.4729242157001 -917.6008626299028 0
-541.1352503460106 -920.7587310652885 0
-532.7693326658357 -918.6951824031734 0
-527.4255351875026 -921.7734563504074 0
-520.0976098623316 -921.3373303060557 0
-512.792601242651 -920.8472990191128 0
-553.6547816469289 -1007.9515775866872 0
-547.7923248246947 -1011.1496273367044 0
-536.0121933002674 -1017.4433294456437 0
-530.0949158349962 -1020.5387695751144 0
-524.1597630792725 -1023.599796194138 0
-517.3057057194587 -1024.8408690280128 0
-508.6732475758497 -1022.4556358104925 0
-679.019282542756 -1426.6509082235643 0
-670.7233469637177 -1430.5698835910773 0
-662.4047939735668 -1434.440618820046 0
-653.2359750890896 -1436.4423973307828 0
-643.2489295938062 -1436.5607590966777 0
-633.2825923012826 -1436.6116936347717 0
-624.133497460788 -1438.4301781273098 0
-613.4138225959516 -1436.5122631736292 0
-603.5122749333685 -1436.362396474076 0
-593.6332049369174 -1436.146099112595 0
-583.0237888039593 -1434.0109001289622 0
-572.4592647102484 -1431.8011000999413 0
-562.6718331064255 -1431.3784992896374 0
-552.9086627462538 -1430.890635464552 0
-543.1701808165071 -1430.3377764261709 0
-533.4568122102133 -1429.7201927323113 0
-523.7689795090711 -1429.0381576795023 0
-515.4617988894948 -1432.0555624296167 0
-506.47082743822045 -1433.1389677745995 0
-496.82923021779493 -1432.2767595689018 0
-306.1203908656648 -899.3276968359489 0
-300.8928807661379 -901.0901588100131 0
-295.6552242805997 -902.8222351911745 0
-289.79621361076687 -902.6196067983805 0
-284.5498627959113 -904.28721962816 0
-279.2939166967138 -905.9243390571914 0
-273.45043323936 -905.6162877075512 0
-267.6199650017676 -905.2709839227439 0
-261.8027472069069 -904.8885685845062 0
-255.99901387980296 -904.4691840480627 0
-250.20899783836748 -904.01297413296 0
-244.95522327122848 -905.4506825841718 0
-237.13782410370789 -897.1898641755595 0
-231.4240553914996 -896.6152500298845 0
-227.1907201307058 -901.8228078100992 0
-350.82427549430207 -1427.5231443741632 0
-342.5288084051528 -1429.5362938423586 0
-334.22179092803543 -1431.5012380256107 0
-324.12987867613515 -1425.6169968646536 0
-315.84593056547055 -1427.4751655091 0
-307.5513318381326 -1429.2851983717562 0
-298.83699644710333 -1429.0893777348126 0
-288.5433566685989 -1421.0006091914308 0
-276.8073931447098 -1404.9916964524843 0
-269.7696163569874 -1412.4688860610715 0
-262.65429651819204 -1419.9115185533688 0
-251.2332688941164 -1403.6943558341952 0
-243.7596987919625 -1409.0710447826439 0
-237.87949815960155 -1424.2715135659128 0
-229.60481742115198 -1425.6288534597634 0
-220.40277205952083 -1421.0090140701004 0
-211.5572134001457 -1418.3086918785928 0
-203.60116934861423 -1421.4930755511534 0
-195.61526654173846 -1424.6328184819429 0
-186.81808988702477 -1421.77881588205 0
-178.3097091256281 -1420.8552521743845 0
-170.29337901153417 -1423.8525784170333 0
-162.02227054072486 -1424.817456325135 0
-153.74569852921525 -1425.7342880718566 0
-145.05818491007992 -1422.6236758154255 0
-136.79463808925624 -1423.442034994762 0
-128.3467211143303 -1422.2204889464927 0
-118.90848560286786 -1408.9914024051504 0
-109.15842358927976 -1389.7195539242812 0
-100.65146179079944 -1384.3457961215381 0
-92.6109413276608 -1384.9069331714693 0
-84.32358814566516 -1381.4288010904652 0
-41.127175024654576 -744.8654613247223 0
-36.80108693369257 -745.0917258972205 0
-32.47375787606922 -745.2928652881405 0
-27.91896379659102 -739.4731445160971 0
-23.62441130306918 -739.622800615681 0
-19.32906217256557 -739.7475159509014 0
-15.033061248221772 -739.8472863162419 0
-10.562447123887578 -727.9233714552344 0
-6.230828895739215 -715.9728882934548 0
-2.073106829556374 -715.9969987563309 0
2.0846851437065412 -715.996965138716 0
6.242406819459201 -715.9727874417438 0
10.370867945218869 -713.9246774681926 0
14.557078476665385 -715.8520038850378 0
18.66147504037715 -713.7560853325998 0
22.80590455228492 -713.6356848683731 0
27.0250540056864 -715.4897947951388 0
31.179410063710176 -715.3207982353645 0
35.332714723212604 -715.1276803972057 0
39.48482793092099 -714.9104477927747 0
43.63560967374141 -714.6691077473553 0
47.784919983476264 -714.4036683991571 0
51.932618941550466 -714.1141386990399 0
56.23521072473546 -715.7943846348228 0
61.56838035238776 -729.4061519762386 0
