ply
format ascii 1.0
element vertex 42
property float x
property float y
property float z
end_header
-1435.14654854322 -729.6947198688524 0
-1430.8850523414455 -738.0162376166385 0
-1408.8538730084597 -737.0419014608756 0
-1404.5501554151788 -745.2106151439319 0
-1382.5865081103364 -743.8780461818101 0
-1362.4420180129573 -743.2736693525342 0
-1344.1018346184142 -743.428717615491 0
-1325.8062654422736 -743.3960899238114 0
-1305.8180977273628 -742.1880460150863 0
-1285.8891952173324 -740.7732295536341 0
-1281.5658832388017 -748.227830889997 0
-1261.7077192847405 -746.4915479074751 0
-1243.6288083979057 -745.5785585186883 0
-1213.6380638697694 -737.2127575716779 0
-1209.336645552761 -744.2478604088801 0
-1194.8113956192392 -744.9092084934956 0
-1176.9375836389647 -743.2912781797421 0
-1160.8080807040292 -742.5689192069838 0
-1146.4055376918639 -742.7720667536095 0
-1132.0401184671266 -742.8332048185068 0
-1124.3759539787118 -747.1805097260379 0
-1123.3367307694703 -755.9302807165213 0
-1122.2336917286893 -764.6931025901808 0
-1122.712857215898 -774.6043120471991 0
-1123.1145911784902 -784.5467577410367 0
-1123.4385476700122 -794.5198736401084 0
-1123.6843847123707 -804.5230907522672 0
-1123.8517643185303 -814.555837151835 0
-1123.940352515029 -824.6175380067976 0
-1122.344176765216 -833.5151761553053 0
-1024.1141520347276 -867.2682420117729 0
-1019.0607038013524 -873.2005966373891 0
-1013.972891899275 -879.1035061319124 0
-999.8298665419551 -877.0634173027036 0
-994.71994768367 -882.854589204925 0
-989.5764859494735 -888.6159904345022 0
-979.9587540833844 -890.3127766663472 0
-971.8273007120259 -893.2814212725896 0
-965.1590955628536 -897.5477258911051 0
-959.9308099641601 -903.1372210697285 0
-885.9920426738348 -873.2434370315335 0
-880.9062255989497 -878.3736230676626 0
